<?xml version="1.0" encoding="UTF-8" standalone="no"?>
<svg
   version="1.0"
   width="242.75905pt"
   height="232.3024pt"
   viewBox="0 0 242.75905 232.3024"
   preserveAspectRatio="xMidYMid meet"
   id="svg34"
   sodipodi:docname="1c390c7c427670b59f3ff3ad3d89d747.svg"
   xmlns:inkscape="http://www.inkscape.org/namespaces/inkscape"
   xmlns:sodipodi="http://sodipodi.sourceforge.net/DTD/sodipodi-0.dtd"
   xmlns="http://www.w3.org/2000/svg"
   xmlns:svg="http://www.w3.org/2000/svg">
  <defs
     id="defs38" />
  <sodipodi:namedview
     id="namedview36"
     pagecolor="#ffffff"
     bordercolor="#666666"
     borderopacity="1.0"
     inkscape:pageshadow="2"
     inkscape:pageopacity="0.0"
     inkscape:pagecheckerboard="0"
     inkscape:document-units="pt" />
  <g
     transform="matrix(0.1,0,0,-0.1,-117.24096,371.9024)"
     fill="#000000"
     stroke="none"
     id="g32">
    <path
       d="m 2615,3702 c -48,-12 -172,-16 -635,-21 l -575,-6 -66,-31 c -36,-17 -82,-47 -101,-67 -82,-82 -88,-222 -13,-321 21,-28 38,-10 21,23 -8,15 -18,51 -22,79 -12,96 60,200 165,238 37,14 98,18 318,22 l 273,4 2,-508 3,-509 h 70 70 l 3,508 2,508 223,-3 c 196,-3 226,-5 253,-22 41,-24 57,-52 64,-106 10,-89 25,-40 28,95 2,105 0,135 -10,134 -7,-1 -40,-8 -73,-17 z"
       id="path2" />
    <path
       d="m 2230,2890 c 0,-5 15,-10 33,-10 17,0 46,-9 64,-20 54,-32 67,-62 71,-167 l 4,-94 67,3 66,3 3,113 3,112 h 53 c 132,0 229,-64 261,-173 l 17,-58 76,3 77,3 -4,30 c -9,78 -85,171 -175,215 -89,42 -149,50 -388,50 -145,0 -228,-4 -228,-10 z"
       id="path4" />
    <path
       d="m 1390,2550 c 0,-5 7,-10 15,-10 11,0 15,-11 15,-40 0,-22 5,-40 10,-40 6,0 10,18 10,40 0,30 4,40 16,40 8,0 12,5 9,10 -3,6 -22,10 -41,10 -19,0 -34,-4 -34,-10 z"
       id="path6" />
    <path
       d="m 1580,2511 c 0,-28 5,-51 10,-51 6,0 10,9 10,20 0,13 7,20 20,20 13,0 20,-7 20,-20 0,-11 5,-20 10,-20 6,0 10,20 10,44 0,25 -4,48 -10,51 -5,3 -10,-3 -10,-14 0,-14 -6,-21 -20,-21 -11,0 -20,6 -20,14 0,8 -4,18 -10,21 -6,4 -10,-13 -10,-44 z"
       id="path8" />
    <path
       d="m 1780,2510 c 0,-49 1,-50 30,-50 17,0 30,5 30,10 0,6 -11,10 -25,10 -14,0 -25,5 -25,10 0,6 12,10 26,10 14,0 23,4 19,10 -3,6 -15,10 -26,10 -10,0 -19,5 -19,10 0,6 12,10 26,10 14,0 23,4 19,10 -3,6 -17,10 -31,10 -22,0 -24,-4 -24,-50 z"
       id="path10" />
    <path
       d="m 2090,2509 v -50 l 33,3 c 30,3 32,6 33,41 1,32 -3,40 -23,48 -40,15 -43,11 -43,-42 z m 50,21 c 0,-5 -7,-10 -15,-10 -8,0 -15,5 -15,10 0,6 7,10 15,10 8,0 15,-4 15,-10 z m -2,-42 c -6,-18 -28,-21 -28,-4 0,9 7,16 16,16 9,0 14,-5 12,-12 z"
       id="path12" />
    <path
       d="m 2292,2544 c -39,-27 -23,-84 23,-84 12,0 26,5 33,12 19,19 15,66 -7,78 -25,13 -22,13 -49,-6 z m 46,-37 c 3,-22 -1,-27 -18,-27 -23,0 -35,22 -26,46 10,25 41,12 44,-19 z"
       id="path14" />
    <path
       d="m 2498,2549 c -12,-6 -18,-22 -18,-44 0,-29 4,-36 25,-41 35,-9 53,1 61,31 4,18 1,32 -11,45 -20,22 -32,24 -57,9 z m 47,-39 c 0,-16 -6,-26 -19,-28 -24,-5 -37,17 -25,41 14,26 44,17 44,-13 z"
       id="path16" />
    <path
       d="m 2690,2511 c 0,-28 5,-51 10,-51 6,0 10,8 10,18 1,16 1,16 11,0 5,-10 17,-18 24,-18 21,0 18,13 -6,28 l -21,13 23,25 c 28,30 19,44 -10,15 -15,-15 -21,-17 -21,-7 0,8 -4,18 -10,21 -6,4 -10,-13 -10,-44 z"
       id="path18" />
    <path
       d="m 2874,2520 c 11,-70 29,-82 45,-27 l 9,32 7,-32 c 11,-46 30,-41 45,12 12,44 7,78 -6,39 -3,-10 -9,-28 -14,-39 -8,-18 -9,-18 -9,5 -1,14 -6,32 -11,40 -9,13 -11,13 -20,0 -5,-8 -10,-23 -10,-32 0,-10 -4,-18 -10,-18 -5,0 -10,11 -10,24 0,14 -5,28 -12,32 -8,5 -9,-5 -4,-36 z"
       id="path20" />
    <path
       d="m 3122,2544 c -39,-27 -23,-84 23,-84 12,0 26,5 33,12 19,19 15,66 -7,78 -25,13 -22,13 -49,-6 z m 46,-37 c 3,-22 -1,-27 -18,-27 -23,0 -35,22 -26,46 10,25 41,12 44,-19 z"
       id="path22" />
    <path
       d="m 3310,2511 c 0,-28 5,-51 10,-51 6,0 10,7 10,17 0,15 1,15 18,0 10,-10 25,-17 33,-17 10,1 8,5 -6,16 -16,12 -17,18 -8,33 14,23 5,38 -30,46 -27,7 -27,7 -27,-44 z m 42,14 c 0,-5 -5,-11 -11,-13 -6,-2 -11,4 -11,13 0,9 5,15 11,13 6,-2 11,-8 11,-13 z"
       id="path24" />
    <path
       d="m 3500,2541 c 0,-10 -3,-33 -6,-50 -4,-20 -3,-31 5,-31 6,0 11,12 11,28 l 1,27 15,-27 c 18,-34 28,-35 42,-5 l 11,22 v -22 c 2,-44 21,-23 21,22 0,53 -13,58 -36,13 l -17,-32 -19,37 c -21,41 -28,46 -28,18 z"
       id="path26" />
    <path
       d="m 1987,2384 c -4,-4 -7,-35 -7,-68 0,-96 -45,-152 -130,-163 -22,-3 -40,-10 -40,-14 0,-5 110,-9 245,-9 157,0 245,4 245,10 0,6 -11,10 -25,10 -37,0 -86,23 -115,54 -20,22 -25,40 -30,104 l -5,77 -65,3 c -36,2 -69,0 -73,-4 z"
       id="path28" />
    <path
       d="m 2400,1955 c 0,-239 -3,-435 -8,-435 -18,0 -112,72 -140,108 -45,56 -88,152 -103,227 -14,70 -39,91 -39,33 0,-181 99,-352 247,-426 104,-53 171,-66 333,-66 215,0 342,42 461,151 105,98 149,222 129,365 -26,181 -164,321 -354,359 l -54,11 40,32 c 23,17 48,41 56,54 l 14,22 h -69 c -66,0 -70,-1 -104,-36 -41,-44 -121,-84 -167,-84 -23,0 -32,-4 -30,-12 3,-8 35,-15 89,-19 210,-17 351,-103 403,-249 25,-70 24,-199 -4,-272 -59,-160 -177,-235 -381,-245 -59,-3 -123,-3 -143,1 l -36,7 -2,452 -3,452 -67,3 -68,3 z"
       id="path30" />
  </g>
</svg>
